<svg width="150" height="56" viewBox="0 0 150 56" fill="none" xmlns="http://www.w3.org/2000/svg">
<g clip-path="url(#clip0_10979_56593)">
<rect width="150" height="56" fill="#F3F3F3"/>
<rect width="2" height="150" transform="matrix(0 -1 1 0 0 17)" fill="black"/>
<rect width="2" height="150" transform="matrix(0 -1 1 0 0 41)" fill="black"/>
<rect width="2" height="23" transform="translate(3.25391 15) rotate(38.2984)" fill="black"/>
<rect width="2" height="24.1232" transform="translate(6.94922 15.1191) rotate(38.2984)" fill="black"/>
<rect width="2" height="25.0485" transform="translate(10.5234 15.3926) rotate(38.2984)" fill="black"/>
<rect width="2" height="26.0541" transform="translate(14.1484 15.6035) rotate(38.2984)" fill="black"/>
<rect width="2" height="30.0295" transform="translate(18.0156 15.5039) rotate(38.2984)" fill="black"/>
<rect width="2" height="30.3404" transform="translate(21.9453 15.3242) rotate(38.2984)" fill="black"/>
<rect width="2" height="30.1321" transform="translate(25.6758 15.4023) rotate(38.2984)" fill="black"/>
<rect width="2" height="31.6416" transform="translate(29.6094 15.2188) rotate(38.2984)" fill="black"/>
<rect width="2" height="30.7246" transform="translate(33.4883 15.1074) rotate(38.2984)" fill="black"/>
<rect width="2" height="30.523" transform="translate(37.0156 15.4395) rotate(38.2984)" fill="black"/>
<rect width="2" height="30.4526" transform="translate(40.793 15.4551) rotate(38.2984)" fill="black"/>
<rect width="2" height="30.1684" transform="translate(44.5195 15.5352) rotate(38.2984)" fill="black"/>
<rect width="2" height="31.1839" transform="translate(48.3242 15.2031) rotate(38.2984)" fill="black"/>
<rect width="2" height="31.2381" transform="translate(51.8438 15.2344) rotate(38.2984)" fill="black"/>
<rect width="2" height="30.4944" transform="translate(55.168 15.5098) rotate(38.2984)" fill="black"/>
<rect width="2" height="30.157" transform="translate(58.6523 15.582) rotate(38.2984)" fill="black"/>
<rect width="2" height="30.7118" transform="translate(62.4414 15.2734) rotate(38.2984)" fill="black"/>
<rect width="2" height="30.5311" transform="translate(65.9688 15.293) rotate(38.2984)" fill="black"/>
<rect width="2" height="30.611" transform="translate(69.3789 15.4609) rotate(38.2984)" fill="black"/>
<rect width="2" height="30.9025" transform="translate(73.1055 15.2266) rotate(38.2984)" fill="black"/>
<rect width="2" height="30.5364" transform="translate(76.4531 15.4746) rotate(38.2984)" fill="black"/>
<rect width="2" height="30.66" transform="translate(80.1211 15.3164) rotate(38.2984)" fill="black"/>
<rect width="2" height="30.6838" transform="translate(83.6367 15.3516) rotate(38.2984)" fill="black"/>
<rect width="2" height="30.8637" transform="translate(87.2617 15.248) rotate(38.2984)" fill="black"/>
<rect width="2" height="30.3902" transform="translate(90.5234 15.6016) rotate(38.2984)" fill="black"/>
<rect width="2" height="30.391" transform="translate(94.3242 15.2754) rotate(38.2984)" fill="black"/>
<rect width="2" height="30.5677" transform="translate(97.6797 15.5117) rotate(38.2984)" fill="black"/>
<rect width="2" height="30.3877" transform="translate(101.262 15.4629) rotate(38.2984)" fill="black"/>
<rect width="2" height="30.3591" transform="translate(104.824 15.4395) rotate(38.2984)" fill="black"/>
<rect width="2" height="30.853" transform="translate(108.555 15.2031) rotate(38.2984)" fill="black"/>
<rect width="2" height="30.7929" transform="translate(112.031 15.2871) rotate(38.2984)" fill="black"/>
<rect width="2" height="30.8159" transform="translate(115.484 15.3984) rotate(38.2984)" fill="black"/>
<rect width="2" height="30.7046" transform="translate(119.02 15.4102) rotate(38.2984)" fill="black"/>
<rect width="2" height="30.4759" transform="translate(122.539 15.4355) rotate(38.2984)" fill="black"/>
<rect width="2" height="30.6466" transform="translate(126.184 15.3125) rotate(38.2984)" fill="black"/>
<rect width="2" height="30.0386" transform="translate(129.398 15.7227) rotate(38.2984)" fill="black"/>
<rect width="2" height="30.444" transform="translate(133.301 15.2695) rotate(38.2984)" fill="black"/>
<rect width="2" height="30.8215" transform="translate(136.797 15.332) rotate(38.2984)" fill="black"/>
<rect width="2" height="30.6799" transform="translate(140.352 15.3145) rotate(38.2984)" fill="black"/>
<rect width="2" height="30.9916" transform="translate(143.75 15.4941) rotate(38.2984)" fill="black"/>
<rect width="2" height="30.954" transform="translate(147.438 15.3145) rotate(38.2984)" fill="black"/>
<rect width="2" height="29.1818" transform="translate(150.215 16.2832) rotate(38.2984)" fill="black"/>
<rect width="2" height="23.759" transform="translate(150.344 20.6055) rotate(38.2984)" fill="black"/>
<rect width="2" height="18.8127" transform="translate(150.781 24.5371) rotate(38.2984)" fill="black"/>
<rect width="2" height="12.1118" transform="translate(150.18 29.7891) rotate(38.2984)" fill="black"/>
<rect width="2" height="10.1884" transform="translate(152.496 31.3398) rotate(38.2984)" fill="black"/>
</g>
<defs>
<clipPath id="clip0_10979_56593">
<rect width="150" height="56" fill="white"/>
</clipPath>
</defs>
</svg>
